# xmcd
#
# Track frame offsets:
#	150
#	21901
#	45528
#	65934
#	87255
#	106257
#	130508
#	147145
#	171547
#	194795
#
# Disc length: 2804 seconds
#
# Revision: 0
# Processed by: cddbd v1.5.2PL0 Copyright (c) Steve Scherf et al.
# Submitted via: EasyCDDAExtractor 15.2.5.1
#
DISCID=920af20a
DTITLE=witch - we intend to cause havoc! 3/4
DYEAR=1900
DGENRE=
TTITLE0=thou shalt not cry
TTITLE1=bleeding thunder
TTITLE2=devil's flight
TTITLE3=blood donor
TTITLE4=nasauka
TTITLE5=evening of my life
TTITLE6=kangalaitoito
TTITLE7=see-saw
TTITLE8=chifundo
TTITLE9=fool's ride
EXTD=
EXTT0=
EXTT1=
EXTT2=
EXTT3=
EXTT4=
EXTT5=
EXTT6=
EXTT7=
EXTT8=
EXTT9=
PLAYORDER=
